<?xml version="1.0" encoding="utf-8"?>
<!-- Generator: Adobe Illustrator 22.1.0, SVG Export Plug-In . SVG Version: 6.00 Build 0)  -->
<svg version="1.1" id="Layer_1" xmlns="http://www.w3.org/2000/svg" xmlns:xlink="http://www.w3.org/1999/xlink" x="0px" y="0px"
	 viewBox="0 0 50 50" xml:space="preserve">
<style type="text/css">
	.st0{fill:#005073;}
</style>
<g>
	<path class="st0" d="M25.3,43C15.2,43,7,34.8,7,24.7S15.2,6.5,25.3,6.5s18.2,8.2,18.2,18.2S35.3,43,25.3,43 M25.3,2.5
		C13,2.5,3,12.5,3,24.7C3,37,13,47,25.3,47s22.3-10,22.3-22.3C47.5,12.5,37.5,2.5,25.3,2.5"/>
	<path class="st0" d="M33.6,16.9L22.2,28.3l-5.2-5.2c-0.8-0.8-2.1-0.8-2.9,0c-0.8,0.8-0.8,2.1,0,2.9l6.7,6.7
		c0.4,0.4,0.9,0.6,1.4,0.6c0.5,0,1.1-0.2,1.4-0.6l12.9-12.9c0.8-0.8,0.8-2.1,0-2.9C35.7,16.1,34.4,16.1,33.6,16.9"/>
</g>
</svg>
